<svg width="640" height="180" viewBox="0 0 640 180" xmlns="http://www.w3.org/2000/svg">
<defs>
<linearGradient id="g2" x1="0%" y1="0%" x2="100%" y2="100%">
<stop offset="0%" stop-color="#FF6B8A"/>
<stop offset="50%" stop-color="#FF9E5E"/>
<stop offset="100%" stop-color="#8A5CF6"/>
</linearGradient>
</defs>
<rect x="10" y="20" width="140" height="140" rx="32" fill="url(#g2)"/>
<circle cx="47" cy="72" r="6" fill="#FFFFFF" opacity="0.95"/>
<circle cx="113" cy="72" r="6" fill="#FFFFFF" opacity="0.95"/>
<path d="M47 72 C53 100, 65 116, 80 122 C95 116, 107 100, 113 72" fill="none" stroke="#FFFFFF" stroke-width="4" stroke-linecap="round" opacity="0.55"/>
<path d="M80 130 C58 114, 46 100, 46 84 C46 72, 56 63, 68 63 C74 63, 79 66, 80 74 C81 66, 86 63, 92 63 C104 63, 114 72, 114 84 C114 100, 102 114, 80 130 Z" fill="#FFFFFF"/>
<text x="176" y="98" font-family="Arial, sans-serif" font-size="58" font-weight="700" fill="#2C2C2A">Date<tspan fill="#8A5CF6">Flow</tspan></text>
<text x="176" y="130" font-family="Arial, sans-serif" font-size="19" fill="#5F5E5A">organize o date, sem problemas</text>
</svg>
